<svg width="975" height="178" viewBox="0 0 975 178" fill="none" xmlns="http://www.w3.org/2000/svg">
<path d="M239.35 5.43262C244.394 2.50865 243.749 0.114716 237.919 0.114716H10.6005C4.77021 0.114716 0 4.88493 0 10.7152V167.258C0 173.088 4.77021 177.858 10.6005 177.858H53.6295C57.9581 177.858 61.5004 173.088 61.5004 167.258V61.1911C61.5004 55.3608 66.2706 50.5906 72.1009 50.5906H75.3428C81.1731 50.5906 85.9433 55.3608 85.9433 61.1911V167.16C85.9521 172.991 90.7223 177.77 96.5526 177.779L136.349 177.84C142.179 177.84 146.949 173.088 146.949 167.258V69.6273C146.949 63.797 151.092 56.677 156.171 53.8149L239.35 5.43262Z" fill="#FFBF00" style="fill:#FFBF00;fill:color(display-p3 1.0000 0.7500 0.0000);fill-opacity:1;"/>
<path d="M291.698 103.779C291.698 109.609 296.469 114.379 302.299 114.379H371.608C377.439 114.379 382.209 117.232 382.209 120.73C382.209 124.229 377.439 127.082 371.608 127.082H302.299C296.469 127.082 291.698 131.852 291.698 137.682V167.267C291.698 173.097 296.469 177.867 302.299 177.867H436.253C442.084 177.867 446.854 173.097 446.854 167.267V74.2032C446.854 68.373 442.084 63.6028 436.253 63.6028H366.944C361.114 63.6028 356.344 60.7495 356.344 57.2513C356.344 53.7532 361.114 50.9175 366.944 50.944L436.253 51.2179C442.084 51.2444 446.854 46.4918 446.854 40.6616V11.0686C446.854 5.23836 442.084 0.459313 436.253 0.441645L302.299 0.132465C296.469 0.114797 291.698 4.87617 291.698 10.7064V103.77V103.779Z" fill="#CC2C91" style="fill:#CC2C91;fill:color(display-p3 0.8000 0.1725 0.5686);fill-opacity:1;"/>
<path d="M460.617 103.743C460.617 109.574 465.387 114.344 471.217 114.344H540.58C546.41 114.344 551.18 117.206 551.18 120.695C551.18 124.185 546.41 127.047 540.58 127.047H471.217C465.387 127.047 460.617 131.817 460.617 137.647V167.258C460.617 173.088 465.387 177.858 471.217 177.858H605.26C611.09 177.858 615.861 173.088 615.861 167.258V74.1326C615.861 68.3024 611.09 63.5322 605.26 63.5322H535.898C530.068 63.5322 525.297 60.67 525.297 57.1807C525.297 53.6914 530.068 50.8293 535.898 50.8381L683.598 50.9176C689.428 50.9176 694.198 46.1562 694.198 40.326V10.7065C694.198 4.87623 689.428 0.106023 683.598 0.106023L471.208 0.0265198C465.378 0.0265198 460.608 4.79673 460.608 10.627V103.752L460.617 103.743Z" fill="#CC2C91" style="fill:#CC2C91;fill:color(display-p3 0.8000 0.1725 0.5686);fill-opacity:1;"/>
<path d="M683.598 63.8413H640.153C634.299 63.8413 629.553 68.5873 629.553 74.4418V167.399C629.553 173.254 634.299 178 640.153 178H683.598C689.452 178 694.198 173.254 694.198 167.399V74.4418C694.198 68.5873 689.452 63.8413 683.598 63.8413Z" fill="#CC2C91" style="fill:#CC2C91;fill:color(display-p3 0.8000 0.1725 0.5686);fill-opacity:1;"/>
<path d="M832.914 0.0530396C827.084 0.0530396 819.672 4.01938 816.43 8.87793L777.226 67.7017C773.993 72.5514 771.299 71.7564 771.246 65.9261L770.698 10.6623C770.636 4.83208 765.822 0.0618733 759.992 0.0618733H716.547C710.717 0.0618733 705.947 4.83208 705.947 10.6623V166.427C705.947 172.258 710.717 177.09 716.547 177.16L773.852 177.876C779.682 177.947 786.829 173.874 789.744 168.821L881.676 9.24011C884.583 4.18722 882.197 0.0530396 876.367 0.0530396H832.923H832.914Z" fill="#CC2C91" style="fill:#CC2C91;fill:color(display-p3 0.8000 0.1725 0.5686);fill-opacity:1;"/>
<path d="M839.849 105.307C836.934 110.36 839.319 114.476 845.149 114.476L964.06 114.308C969.89 114.308 974.66 109.521 974.66 103.69V73.9648C974.66 68.1345 969.89 63.3731 964.06 63.382L874.556 63.541C868.726 63.5498 861.571 67.6928 858.656 72.7369L839.849 105.307Z" fill="#CC2C91" style="fill:#CC2C91;fill:color(display-p3 0.8000 0.1725 0.5686);fill-opacity:1;"/>
<path d="M803.365 168.689C800.45 173.742 802.835 177.867 808.665 177.867H964.059C969.89 177.867 974.66 173.097 974.66 167.267V137.541C974.66 131.711 969.89 126.941 964.059 126.941H838.064C832.234 126.941 825.079 131.075 822.163 136.119L803.356 168.689H803.365Z" fill="#CC2C91" style="fill:#CC2C91;fill:color(display-p3 0.8000 0.1725 0.5686);fill-opacity:1;"/>
<path d="M910.766 5.65369e-05C904.935 -0.0176109 897.78 4.10774 894.874 9.16063L876.093 41.7394C873.178 46.7923 875.572 50.9265 881.402 50.9441L964.059 51.0766C969.89 51.0855 974.66 46.3241 974.66 40.4938V10.7595C974.66 4.92927 969.89 0.15023 964.059 0.132562L910.766 5.65369e-05Z" fill="#CC2C91" style="fill:#CC2C91;fill:color(display-p3 0.8000 0.1725 0.5686);fill-opacity:1;"/>
<path d="M160.332 124.299C160.332 130.13 164.502 132.585 169.599 129.75L206.638 109.158C211.736 106.323 215.914 108.779 215.923 114.609L216.02 167.267C216.029 173.097 220.808 177.858 226.638 177.841L266.761 177.743C272.591 177.726 277.361 172.947 277.361 167.116V10.8656C277.361 5.03531 273.236 2.65904 268.183 5.57417L169.51 62.7019C164.466 65.6258 160.332 72.7811 160.332 78.6114V124.291V124.299Z" fill="#CC2C91" style="fill:#CC2C91;fill:color(display-p3 0.8000 0.1725 0.5686);fill-opacity:1;"/>
</svg>
