<svg width="945" height="173" viewBox="0 0 945 173" fill="none" xmlns="http://www.w3.org/2000/svg">
<path d="M282.822 0.137446L433.256 0.480819V49.8321L345.5 49.4887V61.8244H433.256V172.863H282.822V123.511H370.578V111.176H282.822V0.137446Z" fill="#FF00A1" style="fill:#FF00A1;fill:color(display-p3 1.0000 0.0000 0.6313);fill-opacity:1;"/>
<path d="M446.6 0.0429264L673.081 0.12877V49.5058L509.32 49.42V61.7642H597.128V172.863H446.608V123.486H534.416V111.141H446.608V0.0429264H446.6Z" fill="#FF00A1" style="fill:#FF00A1;fill:color(display-p3 1.0000 0.0000 0.6313);fill-opacity:1;"/>
<path d="M673.081 62.0647V173H610.403V62.0647H673.081Z" fill="#FF00A1" style="fill:#FF00A1;fill:color(display-p3 1.0000 0.0000 0.6313);fill-opacity:1;"/>
<path d="M797.29 0.0772973H859.968L760.572 173L684.456 172.047V0.0772973H747.134L747.862 74.3832L797.29 0.0772973Z" fill="#FF00A1" style="fill:#FF00A1;fill:color(display-p3 1.0000 0.0000 0.6313);fill-opacity:1;"/>
<path d="M945 111.09L809.152 111.287L837.665 61.79L945 61.6011V111.09Z" fill="#FF00A1" style="fill:#FF00A1;fill:color(display-p3 1.0000 0.0000 0.6313);fill-opacity:1;"/>
<path d="M945 172.871H773.779L802.283 123.383H945V172.871Z" fill="#FF00A1" style="fill:#FF00A1;fill:color(display-p3 1.0000 0.0000 0.6313);fill-opacity:1;"/>
<path d="M945 49.6689L844.302 49.5058L872.772 0L945 0.171687V49.6689Z" fill="#FF00A1" style="fill:#FF00A1;fill:color(display-p3 1.0000 0.0000 0.6313);fill-opacity:1;"/>
<path d="M0 0.137274C0 0.137274 0.0256947 170.485 0 172.863H59.6289V49.1881H83.3279L83.3365 172.768L142.477 172.854V57.3862C142.477 57.3862 237.924 3.34781 240.956 0.137274" fill="#C400FF" style="fill:#C400FF;fill:color(display-p3 0.7681 0.0017 1.0000);fill-opacity:1;"/>
<path d="M155.453 66.1251V131.117L209.326 101.089L209.446 172.863L268.912 172.717V0.28335L155.453 66.1251Z" fill="#FF00A1" style="fill:#FF00A1;fill:color(display-p3 1.0000 0.0000 0.6313);fill-opacity:1;"/>
</svg>
